solid ASCII
  facet normal 0.000000e+00 0.000000e+00 1.000000e+00
    outer loop
      vertex   -2.220000e+02 0.000000e+00 -2.220000e+02
      vertex   -2.720000e+02 0.000000e+00 -2.220000e+02
      vertex   -2.220000e+02 -4.000000e+02 -2.220000e+02
    endloop
  endfacet
  facet normal 0.000000e+00 0.000000e+00 1.000000e+00
    outer loop
      vertex   -2.220000e+02 -4.000000e+02 -2.220000e+02
      vertex   -2.720000e+02 0.000000e+00 -2.220000e+02
      vertex   -2.720000e+02 -4.000000e+02 -2.220000e+02
    endloop
  endfacet
  facet normal 1.000000e+00 0.000000e+00 -0.000000e+00
    outer loop
      vertex   -2.220000e+02 0.000000e+00 -2.720000e+02
      vertex   -2.220000e+02 0.000000e+00 -2.220000e+02
      vertex   -2.220000e+02 -4.000000e+02 -2.720000e+02
    endloop
  endfacet
  facet normal 1.000000e+00 0.000000e+00 0.000000e+00
    outer loop
      vertex   -2.220000e+02 -4.000000e+02 -2.720000e+02
      vertex   -2.220000e+02 0.000000e+00 -2.220000e+02
      vertex   -2.220000e+02 -4.000000e+02 -2.220000e+02
    endloop
  endfacet
  facet normal 0.000000e+00 0.000000e+00 -1.000000e+00
    outer loop
      vertex   -2.720000e+02 0.000000e+00 -2.720000e+02
      vertex   -2.220000e+02 0.000000e+00 -2.720000e+02
      vertex   -2.720000e+02 -4.000000e+02 -2.720000e+02
    endloop
  endfacet
  facet normal 0.000000e+00 0.000000e+00 -1.000000e+00
    outer loop
      vertex   -2.720000e+02 -4.000000e+02 -2.720000e+02
      vertex   -2.220000e+02 0.000000e+00 -2.720000e+02
      vertex   -2.220000e+02 -4.000000e+02 -2.720000e+02
    endloop
  endfacet
  facet normal -1.000000e+00 0.000000e+00 2.273737e-15
    outer loop
      vertex   -2.720000e+02 0.000000e+00 -2.220000e+02
      vertex   -2.720000e+02 0.000000e+00 -2.720000e+02
      vertex   -2.720000e+02 -4.000000e+02 -2.220000e+02
    endloop
  endfacet
  facet normal -1.000000e+00 0.000000e+00 2.273737e-15
    outer loop
      vertex   -2.720000e+02 -4.000000e+02 -2.220000e+02
      vertex   -2.720000e+02 0.000000e+00 -2.720000e+02
      vertex   -2.720000e+02 -4.000000e+02 -2.720000e+02
    endloop
  endfacet
  facet normal 0.000000e+00 -1.000000e+00 -0.000000e+00
    outer loop
      vertex   -2.720000e+02 -4.000000e+02 -2.220000e+02
      vertex   -2.720000e+02 -4.000000e+02 -2.720000e+02
      vertex   -2.220000e+02 -4.000000e+02 -2.220000e+02
    endloop
  endfacet
  facet normal 0.000000e+00 -1.000000e+00 -0.000000e+00
    outer loop
      vertex   -2.220000e+02 -4.000000e+02 -2.220000e+02
      vertex   -2.720000e+02 -4.000000e+02 -2.720000e+02
      vertex   -2.220000e+02 -4.000000e+02 -2.720000e+02
    endloop
  endfacet
  facet normal -1.000000e+00 -0.000000e+00 -5.684342e-16
    outer loop
      vertex   2.220000e+02 0.000000e+00 -2.220000e+02
      vertex   2.220000e+02 0.000000e+00 -2.720000e+02
      vertex   2.220000e+02 -4.000000e+02 -2.220000e+02
    endloop
  endfacet
  facet normal -1.000000e+00 0.000000e+00 -5.684342e-16
    outer loop
      vertex   2.220000e+02 -4.000000e+02 -2.220000e+02
      vertex   2.220000e+02 0.000000e+00 -2.720000e+02
      vertex   2.220000e+02 -4.000000e+02 -2.720000e+02
    endloop
  endfacet
  facet normal 5.684342e-16 0.000000e+00 1.000000e+00
    outer loop
      vertex   2.720000e+02 0.000000e+00 -2.220000e+02
      vertex   2.220000e+02 0.000000e+00 -2.220000e+02
      vertex   2.720000e+02 -4.000000e+02 -2.220000e+02
    endloop
  endfacet
  facet normal 5.684342e-16 0.000000e+00 1.000000e+00
    outer loop
      vertex   2.720000e+02 -4.000000e+02 -2.220000e+02
      vertex   2.220000e+02 0.000000e+00 -2.220000e+02
      vertex   2.220000e+02 -4.000000e+02 -2.220000e+02
    endloop
  endfacet
  facet normal 1.000000e+00 0.000000e+00 -0.000000e+00
    outer loop
      vertex   2.720000e+02 0.000000e+00 -2.720000e+02
      vertex   2.720000e+02 0.000000e+00 -2.220000e+02
      vertex   2.720000e+02 -4.000000e+02 -2.720000e+02
    endloop
  endfacet
  facet normal 1.000000e+00 0.000000e+00 0.000000e+00
    outer loop
      vertex   2.720000e+02 -4.000000e+02 -2.720000e+02
      vertex   2.720000e+02 0.000000e+00 -2.220000e+02
      vertex   2.720000e+02 -4.000000e+02 -2.220000e+02
    endloop
  endfacet
  facet normal -1.136868e-15 -0.000000e+00 -1.000000e+00
    outer loop
      vertex   2.220000e+02 0.000000e+00 -2.720000e+02
      vertex   2.720000e+02 0.000000e+00 -2.720000e+02
      vertex   2.220000e+02 -4.000000e+02 -2.720000e+02
    endloop
  endfacet
  facet normal -1.136868e-15 0.000000e+00 -1.000000e+00
    outer loop
      vertex   2.220000e+02 -4.000000e+02 -2.720000e+02
      vertex   2.720000e+02 0.000000e+00 -2.720000e+02
      vertex   2.720000e+02 -4.000000e+02 -2.720000e+02
    endloop
  endfacet
  facet normal 0.000000e+00 -1.000000e+00 0.000000e+00
    outer loop
      vertex   2.720000e+02 -4.000000e+02 -2.720000e+02
      vertex   2.720000e+02 -4.000000e+02 -2.220000e+02
      vertex   2.220000e+02 -4.000000e+02 -2.720000e+02
    endloop
  endfacet
  facet normal 0.000000e+00 -1.000000e+00 0.000000e+00
    outer loop
      vertex   2.220000e+02 -4.000000e+02 -2.720000e+02
      vertex   2.720000e+02 -4.000000e+02 -2.220000e+02
      vertex   2.220000e+02 -4.000000e+02 -2.220000e+02
    endloop
  endfacet
  facet normal 1.000000e+00 0.000000e+00 1.136868e-15
    outer loop
      vertex   -2.220000e+02 0.000000e+00 2.220000e+02
      vertex   -2.220000e+02 0.000000e+00 2.720000e+02
      vertex   -2.220000e+02 -4.000000e+02 2.220000e+02
    endloop
  endfacet
  facet normal 1.000000e+00 0.000000e+00 1.136868e-15
    outer loop
      vertex   -2.220000e+02 -4.000000e+02 2.220000e+02
      vertex   -2.220000e+02 0.000000e+00 2.720000e+02
      vertex   -2.220000e+02 -4.000000e+02 2.720000e+02
    endloop
  endfacet
  facet normal -1.136868e-15 -0.000000e+00 -1.000000e+00
    outer loop
      vertex   -2.720000e+02 0.000000e+00 2.220000e+02
      vertex   -2.220000e+02 0.000000e+00 2.220000e+02
      vertex   -2.720000e+02 -4.000000e+02 2.220000e+02
    endloop
  endfacet
  facet normal -1.136868e-15 0.000000e+00 -1.000000e+00
    outer loop
      vertex   -2.720000e+02 -4.000000e+02 2.220000e+02
      vertex   -2.220000e+02 0.000000e+00 2.220000e+02
      vertex   -2.220000e+02 -4.000000e+02 2.220000e+02
    endloop
  endfacet
  facet normal -1.000000e+00 -0.000000e+00 -0.000000e+00
    outer loop
      vertex   -2.720000e+02 0.000000e+00 2.720000e+02
      vertex   -2.720000e+02 0.000000e+00 2.220000e+02
      vertex   -2.720000e+02 -4.000000e+02 2.720000e+02
    endloop
  endfacet
  facet normal -1.000000e+00 0.000000e+00 0.000000e+00
    outer loop
      vertex   -2.720000e+02 -4.000000e+02 2.720000e+02
      vertex   -2.720000e+02 0.000000e+00 2.220000e+02
      vertex   -2.720000e+02 -4.000000e+02 2.220000e+02
    endloop
  endfacet
  facet normal 1.136868e-15 0.000000e+00 1.000000e+00
    outer loop
      vertex   -2.220000e+02 0.000000e+00 2.720000e+02
      vertex   -2.720000e+02 0.000000e+00 2.720000e+02
      vertex   -2.220000e+02 -4.000000e+02 2.720000e+02
    endloop
  endfacet
  facet normal 1.136868e-15 0.000000e+00 1.000000e+00
    outer loop
      vertex   -2.220000e+02 -4.000000e+02 2.720000e+02
      vertex   -2.720000e+02 0.000000e+00 2.720000e+02
      vertex   -2.720000e+02 -4.000000e+02 2.720000e+02
    endloop
  endfacet
  facet normal 0.000000e+00 -1.000000e+00 0.000000e+00
    outer loop
      vertex   -2.720000e+02 -4.000000e+02 2.720000e+02
      vertex   -2.720000e+02 -4.000000e+02 2.220000e+02
      vertex   -2.220000e+02 -4.000000e+02 2.720000e+02
    endloop
  endfacet
  facet normal 0.000000e+00 -1.000000e+00 -0.000000e+00
    outer loop
      vertex   -2.220000e+02 -4.000000e+02 2.720000e+02
      vertex   -2.720000e+02 -4.000000e+02 2.220000e+02
      vertex   -2.220000e+02 -4.000000e+02 2.220000e+02
    endloop
  endfacet
  facet normal 1.136868e-15 0.000000e+00 -1.000000e+00
    outer loop
      vertex   2.220000e+02 0.000000e+00 2.220000e+02
      vertex   2.720000e+02 0.000000e+00 2.220000e+02
      vertex   2.220000e+02 -4.000000e+02 2.220000e+02
    endloop
  endfacet
  facet normal 1.136868e-15 0.000000e+00 -1.000000e+00
    outer loop
      vertex   2.220000e+02 -4.000000e+02 2.220000e+02
      vertex   2.720000e+02 0.000000e+00 2.220000e+02
      vertex   2.720000e+02 -4.000000e+02 2.220000e+02
    endloop
  endfacet
  facet normal -1.000000e+00 0.000000e+00 1.136868e-15
    outer loop
      vertex   2.220000e+02 0.000000e+00 2.720000e+02
      vertex   2.220000e+02 0.000000e+00 2.220000e+02
      vertex   2.220000e+02 -4.000000e+02 2.720000e+02
    endloop
  endfacet
  facet normal -1.000000e+00 0.000000e+00 1.136868e-15
    outer loop
      vertex   2.220000e+02 -4.000000e+02 2.720000e+02
      vertex   2.220000e+02 0.000000e+00 2.220000e+02
      vertex   2.220000e+02 -4.000000e+02 2.220000e+02
    endloop
  endfacet
  facet normal 0.000000e+00 0.000000e+00 1.000000e+00
    outer loop
      vertex   2.720000e+02 0.000000e+00 2.720000e+02
      vertex   2.220000e+02 0.000000e+00 2.720000e+02
      vertex   2.720000e+02 -4.000000e+02 2.720000e+02
    endloop
  endfacet
  facet normal 0.000000e+00 0.000000e+00 1.000000e+00
    outer loop
      vertex   2.720000e+02 -4.000000e+02 2.720000e+02
      vertex   2.220000e+02 0.000000e+00 2.720000e+02
      vertex   2.220000e+02 -4.000000e+02 2.720000e+02
    endloop
  endfacet
  facet normal 1.000000e+00 0.000000e+00 -1.136868e-15
    outer loop
      vertex   2.720000e+02 0.000000e+00 2.220000e+02
      vertex   2.720000e+02 0.000000e+00 2.720000e+02
      vertex   2.720000e+02 -4.000000e+02 2.220000e+02
    endloop
  endfacet
  facet normal 1.000000e+00 0.000000e+00 -1.136868e-15
    outer loop
      vertex   2.720000e+02 -4.000000e+02 2.220000e+02
      vertex   2.720000e+02 0.000000e+00 2.720000e+02
      vertex   2.720000e+02 -4.000000e+02 2.720000e+02
    endloop
  endfacet
  facet normal -0.000000e+00 -1.000000e+00 0.000000e+00
    outer loop
      vertex   2.720000e+02 -4.000000e+02 2.220000e+02
      vertex   2.720000e+02 -4.000000e+02 2.720000e+02
      vertex   2.220000e+02 -4.000000e+02 2.220000e+02
    endloop
  endfacet
  facet normal 0.000000e+00 -1.000000e+00 0.000000e+00
    outer loop
      vertex   2.220000e+02 -4.000000e+02 2.220000e+02
      vertex   2.720000e+02 -4.000000e+02 2.720000e+02
      vertex   2.220000e+02 -4.000000e+02 2.720000e+02
    endloop
  endfacet
  facet normal 1.000000e+00 -0.000000e+00 0.000000e+00
    outer loop
      vertex   2.750000e+02 0.000000e+00 2.750000e+02
      vertex   2.750000e+02 0.000000e+00 -2.750000e+02
      vertex   2.750000e+02 5.000000e+01 2.750000e+02
    endloop
  endfacet
  facet normal 1.000000e+00 0.000000e+00 0.000000e+00
    outer loop
      vertex   2.750000e+02 5.000000e+01 2.750000e+02
      vertex   2.750000e+02 0.000000e+00 -2.750000e+02
      vertex   2.750000e+02 5.000000e+01 -2.750000e+02
    endloop
  endfacet
  facet normal 0.000000e+00 0.000000e+00 1.000000e+00
    outer loop
      vertex   -2.750000e+02 0.000000e+00 2.750000e+02
      vertex   2.750000e+02 0.000000e+00 2.750000e+02
      vertex   -2.750000e+02 5.000000e+01 2.750000e+02
    endloop
  endfacet
  facet normal -0.000000e+00 0.000000e+00 1.000000e+00
    outer loop
      vertex   -2.750000e+02 5.000000e+01 2.750000e+02
      vertex   2.750000e+02 0.000000e+00 2.750000e+02
      vertex   2.750000e+02 5.000000e+01 2.750000e+02
    endloop
  endfacet
  facet normal -1.000000e+00 0.000000e+00 0.000000e+00
    outer loop
      vertex   -2.750000e+02 0.000000e+00 -2.750000e+02
      vertex   -2.750000e+02 0.000000e+00 2.750000e+02
      vertex   -2.750000e+02 5.000000e+01 -2.750000e+02
    endloop
  endfacet
  facet normal -1.000000e+00 0.000000e+00 0.000000e+00
    outer loop
      vertex   -2.750000e+02 5.000000e+01 -2.750000e+02
      vertex   -2.750000e+02 0.000000e+00 2.750000e+02
      vertex   -2.750000e+02 5.000000e+01 2.750000e+02
    endloop
  endfacet
  facet normal 0.000000e+00 0.000000e+00 -1.000000e+00
    outer loop
      vertex   2.750000e+02 0.000000e+00 -2.750000e+02
      vertex   -2.750000e+02 0.000000e+00 -2.750000e+02
      vertex   2.750000e+02 5.000000e+01 -2.750000e+02
    endloop
  endfacet
  facet normal -0.000000e+00 0.000000e+00 -1.000000e+00
    outer loop
      vertex   2.750000e+02 5.000000e+01 -2.750000e+02
      vertex   -2.750000e+02 0.000000e+00 -2.750000e+02
      vertex   -2.750000e+02 5.000000e+01 -2.750000e+02
    endloop
  endfacet
  facet normal 0.000000e+00 1.000000e+00 0.000000e+00
    outer loop
      vertex   -2.750000e+02 5.000000e+01 -2.750000e+02
      vertex   -2.750000e+02 5.000000e+01 2.750000e+02
      vertex   2.750000e+02 5.000000e+01 -2.750000e+02
    endloop
  endfacet
  facet normal 0.000000e+00 1.000000e+00 -0.000000e+00
    outer loop
      vertex   2.750000e+02 5.000000e+01 -2.750000e+02
      vertex   -2.750000e+02 5.000000e+01 2.750000e+02
      vertex   2.750000e+02 5.000000e+01 2.750000e+02
    endloop
  endfacet
  facet normal 0.000000e+00 -1.000000e+00 0.000000e+00
    outer loop
      vertex   -2.220000e+02 0.000000e+00 -2.220000e+02
      vertex   -2.720000e+02 0.000000e+00 2.220000e+02
      vertex   -2.720000e+02 0.000000e+00 -2.220000e+02
    endloop
  endfacet
  facet normal 0.000000e+00 -1.000000e+00 0.000000e+00
    outer loop
      vertex   -2.720000e+02 0.000000e+00 -2.220000e+02
      vertex   -2.720000e+02 0.000000e+00 2.220000e+02
      vertex   -2.750000e+02 0.000000e+00 2.750000e+02
    endloop
  endfacet
  facet normal -0.000000e+00 -1.000000e+00 0.000000e+00
    outer loop
      vertex   -2.720000e+02 0.000000e+00 -2.220000e+02
      vertex   -2.750000e+02 0.000000e+00 2.750000e+02
      vertex   -2.750000e+02 0.000000e+00 -2.750000e+02
    endloop
  endfacet
  facet normal 0.000000e+00 -1.000000e+00 0.000000e+00
    outer loop
      vertex   -2.220000e+02 0.000000e+00 -2.720000e+02
      vertex   2.220000e+02 0.000000e+00 -2.720000e+02
      vertex   -2.220000e+02 0.000000e+00 -2.220000e+02
    endloop
  endfacet
  facet normal 0.000000e+00 -1.000000e+00 0.000000e+00
    outer loop
      vertex   -2.220000e+02 0.000000e+00 -2.220000e+02
      vertex   2.220000e+02 0.000000e+00 -2.720000e+02
      vertex   2.220000e+02 0.000000e+00 -2.220000e+02
    endloop
  endfacet
  facet normal 0.000000e+00 -1.000000e+00 0.000000e+00
    outer loop
      vertex   -2.220000e+02 0.000000e+00 -2.220000e+02
      vertex   2.220000e+02 0.000000e+00 -2.220000e+02
      vertex   -2.220000e+02 0.000000e+00 2.220000e+02
    endloop
  endfacet
  facet normal 0.000000e+00 -1.000000e+00 0.000000e+00
    outer loop
      vertex   -2.220000e+02 0.000000e+00 2.220000e+02
      vertex   2.220000e+02 0.000000e+00 -2.220000e+02
      vertex   2.220000e+02 0.000000e+00 2.220000e+02
    endloop
  endfacet
  facet normal 0.000000e+00 -1.000000e+00 0.000000e+00
    outer loop
      vertex   -2.220000e+02 0.000000e+00 2.220000e+02
      vertex   2.220000e+02 0.000000e+00 2.220000e+02
      vertex   -2.220000e+02 0.000000e+00 2.720000e+02
    endloop
  endfacet
  facet normal 0.000000e+00 -1.000000e+00 0.000000e+00
    outer loop
      vertex   -2.220000e+02 0.000000e+00 2.720000e+02
      vertex   2.220000e+02 0.000000e+00 2.220000e+02
      vertex   2.220000e+02 0.000000e+00 2.720000e+02
    endloop
  endfacet
  facet normal 0.000000e+00 -1.000000e+00 0.000000e+00
    outer loop
      vertex   -2.220000e+02 0.000000e+00 2.720000e+02
      vertex   2.220000e+02 0.000000e+00 2.720000e+02
      vertex   -2.750000e+02 0.000000e+00 2.750000e+02
    endloop
  endfacet
  facet normal 0.000000e+00 -1.000000e+00 0.000000e+00
    outer loop
      vertex   -2.750000e+02 0.000000e+00 2.750000e+02
      vertex   2.220000e+02 0.000000e+00 2.720000e+02
      vertex   2.750000e+02 0.000000e+00 2.750000e+02
    endloop
  endfacet
  facet normal 0.000000e+00 -1.000000e+00 0.000000e+00
    outer loop
      vertex   2.750000e+02 0.000000e+00 2.750000e+02
      vertex   2.220000e+02 0.000000e+00 2.720000e+02
      vertex   2.720000e+02 0.000000e+00 2.720000e+02
    endloop
  endfacet
  facet normal 0.000000e+00 -1.000000e+00 0.000000e+00
    outer loop
      vertex   2.750000e+02 0.000000e+00 2.750000e+02
      vertex   2.720000e+02 0.000000e+00 2.720000e+02
      vertex   2.720000e+02 0.000000e+00 2.220000e+02
    endloop
  endfacet
  facet normal 0.000000e+00 -1.000000e+00 -0.000000e+00
    outer loop
      vertex   -2.720000e+02 0.000000e+00 -2.720000e+02
      vertex   -2.750000e+02 0.000000e+00 -2.750000e+02
      vertex   -2.220000e+02 0.000000e+00 -2.720000e+02
    endloop
  endfacet
  facet normal 0.000000e+00 -1.000000e+00 -0.000000e+00
    outer loop
      vertex   -2.220000e+02 0.000000e+00 -2.720000e+02
      vertex   -2.750000e+02 0.000000e+00 -2.750000e+02
      vertex   2.750000e+02 0.000000e+00 -2.750000e+02
    endloop
  endfacet
  facet normal 0.000000e+00 -1.000000e+00 0.000000e+00
    outer loop
      vertex   -2.220000e+02 0.000000e+00 -2.720000e+02
      vertex   2.750000e+02 0.000000e+00 -2.750000e+02
      vertex   2.220000e+02 0.000000e+00 -2.720000e+02
    endloop
  endfacet
  facet normal 0.000000e+00 -1.000000e+00 0.000000e+00
    outer loop
      vertex   2.220000e+02 0.000000e+00 -2.720000e+02
      vertex   2.750000e+02 0.000000e+00 -2.750000e+02
      vertex   2.720000e+02 0.000000e+00 -2.720000e+02
    endloop
  endfacet
  facet normal 0.000000e+00 -1.000000e+00 0.000000e+00
    outer loop
      vertex   2.720000e+02 0.000000e+00 -2.720000e+02
      vertex   2.750000e+02 0.000000e+00 -2.750000e+02
      vertex   2.720000e+02 0.000000e+00 -2.220000e+02
    endloop
  endfacet
  facet normal 0.000000e+00 -1.000000e+00 0.000000e+00
    outer loop
      vertex   2.720000e+02 0.000000e+00 -2.220000e+02
      vertex   2.750000e+02 0.000000e+00 -2.750000e+02
      vertex   2.750000e+02 0.000000e+00 2.750000e+02
    endloop
  endfacet
  facet normal 0.000000e+00 -1.000000e+00 0.000000e+00
    outer loop
      vertex   2.720000e+02 0.000000e+00 -2.220000e+02
      vertex   2.750000e+02 0.000000e+00 2.750000e+02
      vertex   2.720000e+02 0.000000e+00 2.220000e+02
    endloop
  endfacet
  facet normal -0.000000e+00 -1.000000e+00 0.000000e+00
    outer loop
      vertex   -2.720000e+02 0.000000e+00 -2.720000e+02
      vertex   -2.720000e+02 0.000000e+00 -2.220000e+02
      vertex   -2.750000e+02 0.000000e+00 -2.750000e+02
    endloop
  endfacet
  facet normal 0.000000e+00 -1.000000e+00 0.000000e+00
    outer loop
      vertex   2.220000e+02 0.000000e+00 -2.220000e+02
      vertex   2.720000e+02 0.000000e+00 -2.220000e+02
      vertex   2.220000e+02 0.000000e+00 2.220000e+02
    endloop
  endfacet
  facet normal 0.000000e+00 -1.000000e+00 0.000000e+00
    outer loop
      vertex   2.220000e+02 0.000000e+00 2.220000e+02
      vertex   2.720000e+02 0.000000e+00 -2.220000e+02
      vertex   2.720000e+02 0.000000e+00 2.220000e+02
    endloop
  endfacet
  facet normal -0.000000e+00 -1.000000e+00 0.000000e+00
    outer loop
      vertex   -2.220000e+02 0.000000e+00 2.220000e+02
      vertex   -2.720000e+02 0.000000e+00 2.220000e+02
      vertex   -2.220000e+02 0.000000e+00 -2.220000e+02
    endloop
  endfacet
  facet normal 0.000000e+00 -1.000000e+00 0.000000e+00
    outer loop
      vertex   -2.720000e+02 0.000000e+00 2.220000e+02
      vertex   -2.720000e+02 0.000000e+00 2.720000e+02
      vertex   -2.750000e+02 0.000000e+00 2.750000e+02
    endloop
  endfacet
  facet normal 0.000000e+00 -1.000000e+00 0.000000e+00
    outer loop
      vertex   -2.750000e+02 0.000000e+00 2.750000e+02
      vertex   -2.720000e+02 0.000000e+00 2.720000e+02
      vertex   -2.220000e+02 0.000000e+00 2.720000e+02
    endloop
  endfacet
endsolid
